<mxfile host="app.diagrams.net" agent="Mozilla/5.0 (Macintosh; Intel Mac OS X 10.15; rv:128.0) Gecko/20100101 Firefox/128.0" version="28.0.6">
  <diagram name="第 1 页" id="OoaUT_aOYlyeEdyREh90">
    <mxGraphModel dx="1653" dy="857" grid="1" gridSize="10" guides="1" tooltips="1" connect="1" arrows="1" fold="1" page="1" pageScale="1" pageWidth="1169" pageHeight="827" math="0" shadow="0">
      <root>
        <mxCell id="0" />
        <mxCell id="1" parent="0" />
        <mxCell id="4tHnzic4T1DWHJhX2jMt-5" style="rounded=0;orthogonalLoop=1;jettySize=auto;html=1;exitX=0.5;exitY=1;exitDx=0;exitDy=0;" edge="1" parent="1" source="4tHnzic4T1DWHJhX2jMt-2" target="4tHnzic4T1DWHJhX2jMt-4">
          <mxGeometry relative="1" as="geometry" />
        </mxCell>
        <mxCell id="4tHnzic4T1DWHJhX2jMt-2" value="OP1" style="rounded=1;whiteSpace=wrap;html=1;" vertex="1" parent="1">
          <mxGeometry x="300" y="154" width="42.5" height="40" as="geometry" />
        </mxCell>
        <mxCell id="4tHnzic4T1DWHJhX2jMt-9" style="edgeStyle=orthogonalEdgeStyle;rounded=0;orthogonalLoop=1;jettySize=auto;html=1;exitX=0.5;exitY=1;exitDx=0;exitDy=0;entryX=0.5;entryY=0;entryDx=0;entryDy=0;" edge="1" parent="1" source="4tHnzic4T1DWHJhX2jMt-4" target="4tHnzic4T1DWHJhX2jMt-8">
          <mxGeometry relative="1" as="geometry" />
        </mxCell>
        <mxCell id="4tHnzic4T1DWHJhX2jMt-4" value="OP2" style="rounded=1;whiteSpace=wrap;html=1;" vertex="1" parent="1">
          <mxGeometry x="302.5" y="219" width="40" height="40" as="geometry" />
        </mxCell>
        <mxCell id="4tHnzic4T1DWHJhX2jMt-7" style="rounded=0;orthogonalLoop=1;jettySize=auto;html=1;exitX=0.5;exitY=1;exitDx=0;exitDy=0;" edge="1" parent="1" source="4tHnzic4T1DWHJhX2jMt-6" target="4tHnzic4T1DWHJhX2jMt-2">
          <mxGeometry relative="1" as="geometry" />
        </mxCell>
        <mxCell id="4tHnzic4T1DWHJhX2jMt-6" value="input feature" style="ellipse;whiteSpace=wrap;html=1;" vertex="1" parent="1">
          <mxGeometry x="302.5" y="74" width="65" height="40" as="geometry" />
        </mxCell>
        <mxCell id="4tHnzic4T1DWHJhX2jMt-11" style="rounded=0;orthogonalLoop=1;jettySize=auto;html=1;exitX=0.5;exitY=1;exitDx=0;exitDy=0;entryX=0.5;entryY=0;entryDx=0;entryDy=0;" edge="1" parent="1" source="4tHnzic4T1DWHJhX2jMt-8" target="4tHnzic4T1DWHJhX2jMt-10">
          <mxGeometry relative="1" as="geometry" />
        </mxCell>
        <mxCell id="4tHnzic4T1DWHJhX2jMt-8" value="......" style="rounded=1;whiteSpace=wrap;html=1;strokeColor=none;" vertex="1" parent="1">
          <mxGeometry x="302.5" y="284" width="40" height="40" as="geometry" />
        </mxCell>
        <mxCell id="4tHnzic4T1DWHJhX2jMt-16" style="rounded=0;orthogonalLoop=1;jettySize=auto;html=1;entryX=0.5;entryY=1;entryDx=0;entryDy=0;" edge="1" parent="1" source="4tHnzic4T1DWHJhX2jMt-10" target="4tHnzic4T1DWHJhX2jMt-15">
          <mxGeometry relative="1" as="geometry" />
        </mxCell>
        <mxCell id="4tHnzic4T1DWHJhX2jMt-10" value="loss" style="rounded=1;whiteSpace=wrap;html=1;" vertex="1" parent="1">
          <mxGeometry x="342.5" y="360" width="40" height="40" as="geometry" />
        </mxCell>
        <mxCell id="4tHnzic4T1DWHJhX2jMt-28" style="edgeStyle=none;rounded=0;orthogonalLoop=1;jettySize=auto;html=1;entryX=0;entryY=0.5;entryDx=0;entryDy=0;" edge="1" parent="1" source="4tHnzic4T1DWHJhX2jMt-12" target="4tHnzic4T1DWHJhX2jMt-27">
          <mxGeometry relative="1" as="geometry" />
        </mxCell>
        <mxCell id="4tHnzic4T1DWHJhX2jMt-29" value="&lt;font style=&quot;font-size: 8px;&quot;&gt;wgrad2&lt;/font&gt;" style="edgeLabel;html=1;align=center;verticalAlign=middle;resizable=0;points=[];" vertex="1" connectable="0" parent="4tHnzic4T1DWHJhX2jMt-28">
          <mxGeometry x="-0.1252" relative="1" as="geometry">
            <mxPoint as="offset" />
          </mxGeometry>
        </mxCell>
        <mxCell id="4tHnzic4T1DWHJhX2jMt-12" value="&lt;div&gt;OP2&lt;/div&gt;&lt;div&gt;bwd&lt;/div&gt;" style="rounded=1;whiteSpace=wrap;html=1;" vertex="1" parent="1">
          <mxGeometry x="382.5" y="219" width="40" height="40" as="geometry" />
        </mxCell>
        <mxCell id="4tHnzic4T1DWHJhX2jMt-25" style="edgeStyle=none;rounded=0;orthogonalLoop=1;jettySize=auto;html=1;entryX=0;entryY=0.5;entryDx=0;entryDy=0;" edge="1" parent="1" source="4tHnzic4T1DWHJhX2jMt-13" target="4tHnzic4T1DWHJhX2jMt-24">
          <mxGeometry relative="1" as="geometry" />
        </mxCell>
        <mxCell id="4tHnzic4T1DWHJhX2jMt-26" value="&lt;div&gt;&lt;font style=&quot;font-size: 8px;&quot;&gt;wgrad1&lt;/font&gt;&lt;/div&gt;" style="edgeLabel;html=1;align=center;verticalAlign=middle;resizable=0;points=[];" vertex="1" connectable="0" parent="4tHnzic4T1DWHJhX2jMt-25">
          <mxGeometry x="0.1121" y="-1" relative="1" as="geometry">
            <mxPoint x="-10" y="-1" as="offset" />
          </mxGeometry>
        </mxCell>
        <mxCell id="4tHnzic4T1DWHJhX2jMt-13" value="&lt;div&gt;OP1&lt;/div&gt;&lt;div&gt;bwd&lt;/div&gt;" style="rounded=1;whiteSpace=wrap;html=1;" vertex="1" parent="1">
          <mxGeometry x="382.5" y="154" width="40" height="40" as="geometry" />
        </mxCell>
        <mxCell id="4tHnzic4T1DWHJhX2jMt-20" style="edgeStyle=orthogonalEdgeStyle;rounded=0;orthogonalLoop=1;jettySize=auto;html=1;entryX=0.5;entryY=1;entryDx=0;entryDy=0;" edge="1" parent="1" source="4tHnzic4T1DWHJhX2jMt-15" target="4tHnzic4T1DWHJhX2jMt-12">
          <mxGeometry relative="1" as="geometry" />
        </mxCell>
        <mxCell id="4tHnzic4T1DWHJhX2jMt-15" value="......" style="rounded=1;whiteSpace=wrap;html=1;strokeColor=none;" vertex="1" parent="1">
          <mxGeometry x="382.5" y="284" width="40" height="40" as="geometry" />
        </mxCell>
        <mxCell id="4tHnzic4T1DWHJhX2jMt-18" style="rounded=0;orthogonalLoop=1;jettySize=auto;html=1;entryX=0.5;entryY=1;entryDx=0;entryDy=0;" edge="1" parent="1" source="4tHnzic4T1DWHJhX2jMt-13" target="4tHnzic4T1DWHJhX2jMt-13">
          <mxGeometry relative="1" as="geometry" />
        </mxCell>
        <mxCell id="4tHnzic4T1DWHJhX2jMt-23" style="rounded=0;orthogonalLoop=1;jettySize=auto;html=1;entryX=0.5;entryY=1;entryDx=0;entryDy=0;exitX=0.5;exitY=0;exitDx=0;exitDy=0;" edge="1" parent="1" source="4tHnzic4T1DWHJhX2jMt-12" target="4tHnzic4T1DWHJhX2jMt-13">
          <mxGeometry relative="1" as="geometry">
            <mxPoint x="419.7481395348838" y="219" as="sourcePoint" />
            <mxPoint x="415.26000000000016" y="182.24" as="targetPoint" />
          </mxGeometry>
        </mxCell>
        <mxCell id="4tHnzic4T1DWHJhX2jMt-32" style="edgeStyle=none;rounded=0;orthogonalLoop=1;jettySize=auto;html=1;entryX=0;entryY=0.5;entryDx=0;entryDy=0;" edge="1" parent="1" source="4tHnzic4T1DWHJhX2jMt-24" target="4tHnzic4T1DWHJhX2jMt-30">
          <mxGeometry relative="1" as="geometry" />
        </mxCell>
        <mxCell id="4tHnzic4T1DWHJhX2jMt-24" value="&lt;div&gt;&lt;font style=&quot;font-size: 8px;&quot;&gt;grad accumulation&lt;br&gt;&lt;/font&gt;&lt;/div&gt;&lt;div&gt;&lt;font style=&quot;font-size: 8px;&quot;&gt;(optional)&lt;/font&gt;&lt;/div&gt;" style="rounded=1;whiteSpace=wrap;html=1;" vertex="1" parent="1">
          <mxGeometry x="482.5" y="154" width="60" height="40" as="geometry" />
        </mxCell>
        <mxCell id="4tHnzic4T1DWHJhX2jMt-33" style="edgeStyle=none;rounded=0;orthogonalLoop=1;jettySize=auto;html=1;entryX=0;entryY=0.5;entryDx=0;entryDy=0;" edge="1" parent="1" source="4tHnzic4T1DWHJhX2jMt-27" target="4tHnzic4T1DWHJhX2jMt-31">
          <mxGeometry relative="1" as="geometry" />
        </mxCell>
        <mxCell id="4tHnzic4T1DWHJhX2jMt-27" value="&lt;div&gt;&lt;font style=&quot;font-size: 8px;&quot;&gt;grad accumulation&lt;br&gt;&lt;/font&gt;&lt;/div&gt;&lt;div&gt;&lt;font style=&quot;font-size: 8px;&quot;&gt;(optional)&lt;/font&gt;&lt;/div&gt;" style="rounded=1;whiteSpace=wrap;html=1;" vertex="1" parent="1">
          <mxGeometry x="482.5" y="219" width="60" height="40" as="geometry" />
        </mxCell>
        <mxCell id="4tHnzic4T1DWHJhX2jMt-36" style="edgeStyle=none;rounded=0;orthogonalLoop=1;jettySize=auto;html=1;entryX=0;entryY=0.5;entryDx=0;entryDy=0;" edge="1" parent="1" source="4tHnzic4T1DWHJhX2jMt-30" target="4tHnzic4T1DWHJhX2jMt-34">
          <mxGeometry relative="1" as="geometry" />
        </mxCell>
        <mxCell id="4tHnzic4T1DWHJhX2jMt-30" value="nccl allreduce" style="rounded=1;whiteSpace=wrap;html=1;" vertex="1" parent="1">
          <mxGeometry x="578.5" y="154" width="60" height="40" as="geometry" />
        </mxCell>
        <mxCell id="4tHnzic4T1DWHJhX2jMt-37" style="edgeStyle=none;rounded=0;orthogonalLoop=1;jettySize=auto;html=1;entryX=0;entryY=0.5;entryDx=0;entryDy=0;" edge="1" parent="1" source="4tHnzic4T1DWHJhX2jMt-31" target="4tHnzic4T1DWHJhX2jMt-35">
          <mxGeometry relative="1" as="geometry" />
        </mxCell>
        <mxCell id="4tHnzic4T1DWHJhX2jMt-31" value="nccl allreduce" style="rounded=1;whiteSpace=wrap;html=1;" vertex="1" parent="1">
          <mxGeometry x="578.5" y="219" width="60" height="40" as="geometry" />
        </mxCell>
        <mxCell id="4tHnzic4T1DWHJhX2jMt-34" value="optimizer" style="rounded=1;whiteSpace=wrap;html=1;" vertex="1" parent="1">
          <mxGeometry x="668.5" y="154" width="60" height="40" as="geometry" />
        </mxCell>
        <mxCell id="4tHnzic4T1DWHJhX2jMt-35" value="optimizer" style="rounded=1;whiteSpace=wrap;html=1;" vertex="1" parent="1">
          <mxGeometry x="668.5" y="216.5" width="61.5" height="43.5" as="geometry" />
        </mxCell>
        <mxCell id="4tHnzic4T1DWHJhX2jMt-41" value="weight1" style="shape=cylinder3;whiteSpace=wrap;html=1;boundedLbl=1;backgroundOutline=1;size=15;fillColor=#fff2cc;strokeColor=#d6b656;" vertex="1" parent="1">
          <mxGeometry x="150" y="134" width="40" height="60" as="geometry" />
        </mxCell>
        <mxCell id="4tHnzic4T1DWHJhX2jMt-46" style="edgeStyle=none;rounded=0;orthogonalLoop=1;jettySize=auto;html=1;entryX=0;entryY=0.5;entryDx=0;entryDy=0;" edge="1" parent="1" source="4tHnzic4T1DWHJhX2jMt-44" target="4tHnzic4T1DWHJhX2jMt-4">
          <mxGeometry relative="1" as="geometry" />
        </mxCell>
        <mxCell id="4tHnzic4T1DWHJhX2jMt-44" value="weight2" style="shape=cylinder3;whiteSpace=wrap;html=1;boundedLbl=1;backgroundOutline=1;size=15;fillColor=#fff2cc;strokeColor=#d6b656;" vertex="1" parent="1">
          <mxGeometry x="150" y="224" width="40" height="60" as="geometry" />
        </mxCell>
        <mxCell id="4tHnzic4T1DWHJhX2jMt-45" style="edgeStyle=none;rounded=0;orthogonalLoop=1;jettySize=auto;html=1;" edge="1" parent="1" source="4tHnzic4T1DWHJhX2jMt-41">
          <mxGeometry relative="1" as="geometry">
            <mxPoint x="300" y="180" as="targetPoint" />
          </mxGeometry>
        </mxCell>
        <mxCell id="4tHnzic4T1DWHJhX2jMt-54" style="edgeStyle=orthogonalEdgeStyle;curved=1;rounded=0;orthogonalLoop=1;jettySize=auto;html=1;exitX=0.5;exitY=1;exitDx=0;exitDy=0;exitPerimeter=0;dashed=1;" edge="1" parent="1" source="4tHnzic4T1DWHJhX2jMt-47">
          <mxGeometry relative="1" as="geometry">
            <mxPoint x="170" y="194.20000000000005" as="targetPoint" />
            <Array as="points">
              <mxPoint x="890" y="194" />
              <mxPoint x="890" y="430" />
              <mxPoint x="200" y="430" />
              <mxPoint x="200" y="194" />
            </Array>
          </mxGeometry>
        </mxCell>
        <mxCell id="4tHnzic4T1DWHJhX2jMt-55" value="&lt;div&gt;Next interation&lt;/div&gt;" style="edgeLabel;html=1;align=center;verticalAlign=middle;resizable=0;points=[];" vertex="1" connectable="0" parent="4tHnzic4T1DWHJhX2jMt-54">
          <mxGeometry x="0.142" relative="1" as="geometry">
            <mxPoint as="offset" />
          </mxGeometry>
        </mxCell>
        <mxCell id="4tHnzic4T1DWHJhX2jMt-47" value="&lt;div&gt;weight1&lt;/div&gt;&lt;div&gt;updated&lt;/div&gt;" style="shape=cylinder3;whiteSpace=wrap;html=1;boundedLbl=1;backgroundOutline=1;size=15;fillColor=#fff2cc;strokeColor=#d6b656;" vertex="1" parent="1">
          <mxGeometry x="790" y="134" width="40" height="60" as="geometry" />
        </mxCell>
        <mxCell id="4tHnzic4T1DWHJhX2jMt-48" style="edgeStyle=none;rounded=0;orthogonalLoop=1;jettySize=auto;html=1;exitX=1;exitY=0.5;exitDx=0;exitDy=0;entryX=0;entryY=0.5;entryDx=0;entryDy=0;entryPerimeter=0;" edge="1" parent="1" source="4tHnzic4T1DWHJhX2jMt-34" target="4tHnzic4T1DWHJhX2jMt-47">
          <mxGeometry relative="1" as="geometry" />
        </mxCell>
        <mxCell id="4tHnzic4T1DWHJhX2jMt-49" value="&lt;div&gt;weight2&lt;/div&gt;&lt;div&gt;updated&lt;/div&gt;" style="shape=cylinder3;whiteSpace=wrap;html=1;boundedLbl=1;backgroundOutline=1;size=15;fillColor=#fff2cc;strokeColor=#d6b656;" vertex="1" parent="1">
          <mxGeometry x="800" y="224" width="40" height="60" as="geometry" />
        </mxCell>
        <mxCell id="4tHnzic4T1DWHJhX2jMt-50" style="edgeStyle=none;rounded=0;orthogonalLoop=1;jettySize=auto;html=1;entryX=0;entryY=0;entryDx=0;entryDy=37.5;entryPerimeter=0;" edge="1" parent="1" source="4tHnzic4T1DWHJhX2jMt-35" target="4tHnzic4T1DWHJhX2jMt-49">
          <mxGeometry relative="1" as="geometry" />
        </mxCell>
        <mxCell id="4tHnzic4T1DWHJhX2jMt-52" style="edgeStyle=orthogonalEdgeStyle;curved=1;rounded=0;orthogonalLoop=1;jettySize=auto;html=1;entryX=0.5;entryY=1;entryDx=0;entryDy=0;entryPerimeter=0;dashed=1;" edge="1" parent="1" source="4tHnzic4T1DWHJhX2jMt-49" target="4tHnzic4T1DWHJhX2jMt-44">
          <mxGeometry relative="1" as="geometry">
            <Array as="points">
              <mxPoint x="770" y="254" />
              <mxPoint x="770" y="490" />
              <mxPoint x="170" y="490" />
            </Array>
          </mxGeometry>
        </mxCell>
        <mxCell id="4tHnzic4T1DWHJhX2jMt-53" value="Next iteration" style="edgeLabel;html=1;align=center;verticalAlign=middle;resizable=0;points=[];" vertex="1" connectable="0" parent="4tHnzic4T1DWHJhX2jMt-52">
          <mxGeometry x="0.0746" relative="1" as="geometry">
            <mxPoint as="offset" />
          </mxGeometry>
        </mxCell>
        <mxCell id="4tHnzic4T1DWHJhX2jMt-57" style="edgeStyle=orthogonalEdgeStyle;curved=1;rounded=0;orthogonalLoop=1;jettySize=auto;html=1;entryX=0.5;entryY=0;entryDx=0;entryDy=0;" edge="1" parent="1" source="4tHnzic4T1DWHJhX2jMt-56" target="4tHnzic4T1DWHJhX2jMt-34">
          <mxGeometry relative="1" as="geometry" />
        </mxCell>
        <mxCell id="4tHnzic4T1DWHJhX2jMt-56" value="optimizer state1" style="shape=cylinder3;whiteSpace=wrap;html=1;boundedLbl=1;backgroundOutline=1;size=15;fillColor=#dae8fc;strokeColor=#6c8ebf;" vertex="1" parent="1">
          <mxGeometry x="678.5" y="64" width="40" height="60" as="geometry" />
        </mxCell>
        <mxCell id="4tHnzic4T1DWHJhX2jMt-58" value="optimizer state2" style="shape=cylinder3;whiteSpace=wrap;html=1;boundedLbl=1;backgroundOutline=1;size=15;fillColor=#dae8fc;strokeColor=#6c8ebf;" vertex="1" parent="1">
          <mxGeometry x="679.25" y="300" width="40" height="60" as="geometry" />
        </mxCell>
        <mxCell id="4tHnzic4T1DWHJhX2jMt-59" style="edgeStyle=orthogonalEdgeStyle;curved=1;rounded=0;orthogonalLoop=1;jettySize=auto;html=1;entryX=0.6;entryY=1.051;entryDx=0;entryDy=0;entryPerimeter=0;" edge="1" parent="1" source="4tHnzic4T1DWHJhX2jMt-58" target="4tHnzic4T1DWHJhX2jMt-35">
          <mxGeometry relative="1" as="geometry" />
        </mxCell>
      </root>
    </mxGraphModel>
  </diagram>
</mxfile>
